<?xml version="1.0" encoding="UTF-8"?>
<svg width="752pt" height="752pt" version="1.1" viewBox="0 0 752 752" xmlns="http://www.w3.org/2000/svg">
 <g>
  <path d="m307.34 459.47-15.695-15.699 152.8-152.76 15.695 15.699z"/>
  <path d="m443.81 460.26-152.85-152.72 15.691-15.703 152.85 152.72z"/>
  <path d="m529.91 600.95h-307.83c-39.957 0-71.039-32.559-71.039-71.039l0.003906-307.83c0-39.957 32.559-71.039 71.039-71.039h307.83c39.957 0 71.039 32.559 71.039 71.039v307.83c1.4766 39.961-31.082 71.039-71.043 71.039zm-307.83-429.18c-26.641 0-48.84 22.199-48.84 48.84v307.83c0 26.641 22.199 48.84 48.84 48.84h307.83c26.641 0 48.84-22.199 48.84-48.84v-306.35c0-26.641-22.199-48.84-48.84-48.84z"/>
 </g>
</svg>
